<?xml version="1.0" encoding="UTF-8" standalone="no"?>
<!DOCTYPE svg PUBLIC "-//W3C//DTD SVG 1.1//EN" "http://www.w3.org/Graphics/SVG/1.1/DTD/svg11.dtd">
<svg width="100%" height="100%" viewBox="0 0 420 280" version="1.1" xmlns="http://www.w3.org/2000/svg" xmlns:xlink="http://www.w3.org/1999/xlink" xml:space="preserve" xmlns:serif="http://www.serif.com/" style="fill-rule:evenodd;clip-rule:evenodd;stroke-linejoin:round;stroke-miterlimit:2;">
    <g id="Layer-1" serif:id="Layer 1" transform="matrix(1.03542,0,0,0.999523,-133.318,-5.96069)">
        <g transform="matrix(1,0,0,1,186.394,203.844)">
            <path d="M0,-115.628C1.647,-120.88 4.537,-125.51 8.67,-129.487C12.772,-133.465 18.303,-136.634 25.232,-138.934C32.162,-141.264 40.77,-142.414 51.055,-142.414L155.869,-142.414L155.869,-187.876L47.979,-187.876C30.764,-187.876 16.034,-185.638 3.853,-181.133C-8.359,-176.627 -18.303,-170.412 -26.009,-162.457C-33.716,-154.471 -39.309,-145.024 -42.789,-134.117C-46.239,-123.21 -47.979,-111.184 -47.979,-98.102L-47.979,72.248L-2.517,72.248L-2.517,-30.671L154.315,-30.671L154.315,-73.802L-2.517,-73.802L-2.517,-98.475C-2.517,-104.628 -1.678,-110.345 0,-115.628" style="fill:rgb(113,21,6);fill-rule:nonzero;"/>
        </g>
        <g transform="matrix(1.00322,0,0,1,494.774,244.117)">
            <path d="M0,-196.173C-19.919,-217.49 -49.004,-228.148 -87.288,-228.148L-200.57,-228.148L-200.585,-182.717L-87.288,-182.687C-61.869,-182.687 -43.566,-176.068 -32.379,-162.83C-21.193,-149.592 -15.63,-128.089 -15.63,-98.289C-15.63,-68.488 -21.286,-46.892 -32.566,-33.561C-43.877,-20.199 -62.118,-13.518 -87.288,-13.518L-150.12,-13.518C-153.445,-13.518 -155.123,-15.04 -155.123,-18.148L-155.123,-61.621L-200.585,-61.621L-200.585,10.782C-200.585,24.89 -193.407,31.975 -179.019,31.975L-87.288,31.975C-49.004,31.975 -19.919,21.317 0,-0.031C19.888,-21.349 29.862,-53.977 29.862,-97.916C29.862,-142.072 19.888,-174.856 0,-196.173" style="fill:rgb(113,21,6);fill-rule:nonzero;"/>
        </g>
    </g>
</svg>
