<?xml version="1.0" encoding="UTF-8" ?>
<!DOCTYPE svg PUBLIC "-//W3C//DTD SVG 1.1//EN" "http://www.w3.org/Graphics/SVG/1.1/DTD/svg11.dtd">
<svg width="1000pt" height="1000pt" viewBox="0 0 1000 1000" version="1.1" xmlns="http://www.w3.org/2000/svg">
<g id="#711506ff">
<path fill="#711506" opacity="1.00" d=" M 477.72 0.00 L 520.27 0.00 C 525.63 1.43 531.18 0.99 536.66 1.30 C 551.25 2.69 565.86 4.14 580.31 6.73 C 606.48 10.76 632.13 17.56 657.34 25.56 C 665.65 28.59 673.97 31.60 682.26 34.69 C 702.86 43.18 723.27 52.27 742.61 63.40 C 774.32 80.84 803.81 102.14 830.96 126.04 C 836.55 130.77 841.44 136.26 847.08 140.95 C 851.24 144.42 855.05 148.30 858.52 152.46 C 862.16 156.81 866.30 160.69 870.13 164.86 C 895.02 192.69 917.19 223.05 935.25 255.76 C 944.43 271.76 952.39 288.43 959.54 305.43 C 964.51 316.24 968.16 327.57 972.39 338.68 C 974.61 344.65 976.24 350.82 978.08 356.91 C 988.00 389.76 994.20 423.66 997.27 457.82 C 998.20 464.96 997.59 472.21 998.66 479.34 C 999.70 486.19 998.93 493.11 998.98 500.00 C 998.93 506.89 999.70 513.81 998.66 520.66 C 997.86 525.99 997.98 531.38 997.74 536.75 C 995.55 563.24 991.67 589.61 985.49 615.47 C 982.65 627.89 978.95 640.09 975.36 652.31 C 973.02 660.36 969.73 668.08 967.00 676.00 C 964.32 683.75 961.01 691.26 957.71 698.76 C 946.25 725.99 931.74 751.86 915.64 776.61 C 899.38 800.56 881.59 823.59 861.36 844.34 C 858.49 847.48 855.84 850.82 852.82 853.82 C 849.48 857.17 845.74 860.06 842.30 863.30 C 828.66 876.78 813.68 888.83 798.44 900.45 C 774.37 918.49 748.63 934.31 721.68 947.67 C 710.74 953.41 699.24 957.98 687.95 962.97 C 678.15 967.13 668.02 970.41 658.09 974.19 C 632.64 982.32 606.73 989.20 580.30 993.27 C 567.05 995.65 553.65 997.05 540.26 998.36 C 533.62 999.28 526.82 998.27 520.28 1000.00 L 477.73 1000.00 C 472.96 998.77 468.03 998.88 463.16 998.80 C 428.47 996.06 393.97 990.19 360.54 980.44 C 351.90 977.83 343.14 975.57 334.72 972.30 C 326.27 969.05 317.63 966.31 309.34 962.67 C 298.05 957.68 286.57 953.10 275.65 947.33 C 239.79 929.52 206.16 907.26 175.63 881.37 C 169.91 876.43 164.07 871.61 158.75 866.24 C 155.26 862.71 151.44 859.55 147.74 856.26 C 142.44 851.54 138.29 845.73 133.25 840.76 C 128.03 835.62 123.33 829.99 118.55 824.45 C 85.41 785.60 58.18 741.68 38.46 694.57 C 33.18 683.03 29.28 670.94 24.81 659.08 C 16.76 633.92 9.95 608.29 5.86 582.16 C 4.08 571.94 2.70 561.66 1.66 551.35 C 1.37 546.97 0.71 542.63 0.00 538.32 L 0.00 461.69 C 2.11 447.97 2.84 434.06 5.45 420.41 C 9.44 393.91 16.26 367.94 24.30 342.41 C 27.28 334.07 30.37 325.77 33.41 317.46 C 41.95 296.60 51.15 275.95 62.40 256.39 C 80.53 223.44 102.81 192.87 127.86 164.86 C 131.69 160.68 135.84 156.81 139.47 152.46 C 142.95 148.30 146.75 144.41 150.92 140.94 C 156.56 136.26 161.45 130.77 167.04 126.04 C 194.18 102.14 223.69 80.84 255.39 63.40 C 274.95 52.15 295.59 42.95 316.45 34.42 C 328.78 29.99 340.93 25.01 353.60 21.60 C 389.20 10.70 426.06 4.09 463.16 1.20 C 468.03 1.12 472.95 1.22 477.72 0.00 M 198.86 163.87 C 198.75 196.24 198.84 228.62 198.81 261.00 C 198.85 452.71 198.75 644.42 198.86 836.14 C 226.92 836.20 254.97 836.26 283.03 836.10 L 283.28 835.01 C 283.21 730.42 283.36 625.83 283.20 521.24 C 314.47 521.39 345.73 521.23 377.00 521.32 C 381.42 521.37 385.85 521.34 390.26 520.90 C 390.59 522.73 392.09 523.30 391.69 525.21 L 392.61 525.26 C 392.14 528.00 395.70 529.30 395.73 532.12 L 396.60 532.26 C 396.62 532.74 396.67 533.71 396.69 534.19 L 397.60 534.25 C 397.63 534.73 397.70 535.69 397.73 536.17 L 398.61 536.25 C 398.64 536.72 398.68 537.67 398.70 538.15 L 399.62 538.25 C 399.65 538.72 399.73 539.66 399.76 540.13 L 400.62 540.25 C 400.65 540.72 400.72 541.66 400.75 542.13 L 401.61 542.25 C 401.66 542.71 401.75 543.64 401.80 544.10 L 402.61 544.24 C 402.66 544.71 402.75 545.65 402.79 546.12 L 403.61 546.26 C 403.66 546.72 403.77 547.62 403.83 548.08 L 404.61 548.25 C 404.23 550.18 406.13 550.10 405.89 551.99 C 408.01 552.92 407.79 556.06 410.19 556.68 C 410.71 558.12 410.39 560.19 412.23 560.70 C 412.60 562.72 412.62 565.22 414.64 566.39 C 414.42 567.81 416.22 568.61 415.93 570.09 C 417.65 570.38 417.70 572.68 417.96 574.04 C 419.26 574.54 419.69 576.29 421.20 576.71 C 421.46 577.76 421.72 578.81 421.99 579.88 C 423.46 580.69 423.72 582.44 424.08 583.94 C 425.06 585.95 427.12 587.63 426.94 590.06 C 428.51 590.26 428.39 592.13 429.01 593.22 C 432.34 593.30 435.67 593.37 439.00 593.38 C 481.62 593.32 524.24 593.41 566.86 593.32 C 566.74 596.88 566.70 600.44 566.71 604.00 C 566.80 681.36 566.60 758.73 566.81 836.09 C 594.94 836.25 623.07 836.25 651.20 836.09 C 651.36 828.06 651.26 820.03 651.29 812.00 C 651.29 740.66 651.29 669.33 651.28 598.00 C 651.39 596.39 650.18 594.95 650.96 593.37 C 672.56 593.29 694.15 593.48 715.75 593.27 C 715.63 664.51 715.73 735.76 715.70 807.00 C 715.74 816.72 715.59 826.44 715.80 836.16 C 743.93 836.37 772.06 836.30 800.20 836.19 C 800.22 833.78 800.25 831.38 800.27 828.99 C 800.27 709.33 800.27 589.66 800.27 470.00 C 800.26 462.60 800.35 455.20 800.15 447.81 C 774.76 447.51 749.35 447.88 723.96 447.61 C 721.20 447.81 718.47 448.20 715.77 448.71 C 715.64 472.72 715.65 496.73 715.76 520.74 C 680.18 520.63 644.59 520.60 609.00 520.76 C 608.38 519.89 608.14 518.97 608.27 517.99 C 607.09 516.36 606.27 514.50 605.32 512.68 C 603.80 512.20 604.10 509.84 602.64 509.34 C 601.68 507.37 600.73 505.27 599.38 503.69 C 597.86 501.39 597.36 498.54 595.24 496.73 C 595.25 495.65 594.94 494.63 594.31 493.68 C 592.26 492.63 592.71 489.40 590.63 488.35 C 587.18 482.83 584.94 476.99 581.24 471.68 C 581.58 470.06 578.99 469.52 579.27 467.99 C 577.45 465.87 576.74 462.95 575.30 460.70 C 574.31 459.29 574.24 457.19 572.60 456.35 C 571.74 453.01 568.25 452.04 567.45 448.66 C 565.62 448.41 563.85 447.53 561.99 447.80 C 519.35 447.78 476.71 447.80 434.07 447.78 C 433.58 447.83 432.61 447.92 432.12 447.97 C 432.45 441.65 432.30 435.32 432.31 429.00 C 432.32 373.00 432.31 317.00 432.31 261.00 C 432.28 252.93 432.41 244.85 432.19 236.78 C 421.80 236.48 411.40 236.70 401.00 236.64 C 383.27 236.72 365.53 236.46 347.81 236.78 C 347.65 242.51 347.66 248.26 347.68 254.00 C 347.69 312.33 347.68 370.67 347.69 429.00 C 347.69 435.32 347.62 441.64 347.79 447.96 L 346.88 447.73 C 325.65 447.88 304.42 447.73 283.19 447.80 C 283.38 353.53 283.19 259.26 283.28 164.99 L 283.02 163.90 C 254.97 163.73 226.92 163.80 198.86 163.87 Z" />
</g>
<g id="#fefefeff">
<path fill="#fefefe" opacity="1.00" d=" M 198.86 163.87 C 226.92 163.80 254.97 163.73 283.02 163.90 L 283.28 164.99 C 283.19 259.26 283.38 353.53 283.19 447.80 C 304.42 447.73 325.65 447.88 346.88 447.73 L 347.79 447.96 C 352.85 453.64 356.32 460.41 360.03 466.99 C 364.65 474.46 368.49 482.38 373.02 489.91 C 377.03 496.64 380.45 503.72 384.76 510.28 C 386.97 513.61 388.90 517.13 390.26 520.90 C 385.85 521.34 381.42 521.37 377.00 521.32 C 345.73 521.23 314.47 521.39 283.20 521.24 C 283.36 625.83 283.21 730.42 283.28 835.01 L 283.03 836.10 C 254.97 836.26 226.92 836.20 198.86 836.14 C 198.75 644.42 198.85 452.71 198.81 261.00 C 198.84 228.62 198.75 196.24 198.86 163.87 Z" />
<path fill="#fefefe" opacity="1.00" d=" M 432.12 447.97 C 432.61 447.92 433.58 447.83 434.07 447.78 C 476.71 447.80 519.35 447.78 561.99 447.80 C 563.85 447.53 565.62 448.41 567.45 448.66 C 568.25 452.04 571.74 453.01 572.60 456.35 C 574.24 457.19 574.31 459.29 575.30 460.70 C 576.74 462.95 577.45 465.87 579.27 467.99 C 578.99 469.52 581.58 470.06 581.24 471.68 C 584.94 476.99 587.18 482.83 590.63 488.35 C 592.71 489.40 592.26 492.63 594.31 493.68 C 594.94 494.63 595.25 495.65 595.24 496.73 C 597.36 498.54 597.86 501.39 599.38 503.69 C 600.73 505.27 601.68 507.37 602.64 509.34 C 604.10 509.84 603.80 512.20 605.32 512.68 C 606.27 514.50 607.09 516.36 608.27 517.99 C 608.14 518.97 608.38 519.89 609.00 520.76 C 592.00 521.08 575.00 520.91 558.00 520.61 C 516.00 520.73 474.00 520.44 432.00 520.76 C 431.53 508.51 431.87 496.25 431.77 484.00 C 431.90 471.99 431.44 459.97 432.12 447.97 Z" />
<path fill="#fefefe" opacity="1.00" d=" M 566.86 593.32 C 594.89 593.38 622.93 593.31 650.96 593.37 C 650.18 594.95 651.39 596.39 651.28 598.00 C 651.29 669.33 651.29 740.66 651.29 812.00 C 651.26 820.03 651.36 828.06 651.20 836.09 C 623.07 836.25 594.94 836.25 566.81 836.09 C 566.60 758.73 566.80 681.36 566.71 604.00 C 566.70 600.44 566.74 596.88 566.86 593.32 Z" />
</g>
<g id="#a4a4a4ff">
<path fill="#a4a4a4" opacity="1.00" d=" M 347.81 236.78 C 365.53 236.46 383.27 236.72 401.00 236.64 C 411.40 236.70 421.80 236.48 432.19 236.78 C 432.41 244.85 432.28 252.93 432.31 261.00 C 432.31 317.00 432.32 373.00 432.31 429.00 C 432.30 435.32 432.45 441.65 432.12 447.97 C 431.44 459.97 431.90 471.99 431.77 484.00 C 431.87 496.25 431.53 508.51 432.00 520.76 C 474.00 520.44 516.00 520.73 558.00 520.61 C 575.00 520.91 592.00 521.08 609.00 520.76 C 644.59 520.60 680.18 520.63 715.76 520.74 C 715.65 496.73 715.64 472.72 715.77 448.71 C 718.47 448.20 721.20 447.81 723.96 447.61 C 749.35 447.88 774.76 447.51 800.15 447.81 C 800.35 455.20 800.26 462.60 800.27 470.00 C 800.27 589.66 800.27 709.33 800.27 828.99 C 800.25 831.38 800.22 833.78 800.20 836.19 C 772.06 836.30 743.93 836.37 715.80 836.16 C 715.59 826.44 715.74 816.72 715.70 807.00 C 715.73 735.76 715.63 664.51 715.75 593.27 C 694.15 593.48 672.56 593.29 650.96 593.37 C 622.93 593.31 594.89 593.38 566.86 593.32 C 524.24 593.41 481.62 593.32 439.00 593.38 C 435.67 593.37 432.34 593.30 429.01 593.22 C 428.39 592.13 428.51 590.26 426.94 590.06 C 427.12 587.63 425.06 585.95 424.08 583.94 C 423.72 582.44 423.46 580.69 421.99 579.88 C 421.72 578.81 421.46 577.76 421.20 576.71 C 419.69 576.29 419.26 574.54 417.96 574.04 C 417.70 572.68 417.65 570.38 415.93 570.09 C 416.22 568.61 414.42 567.81 414.64 566.39 C 412.62 565.22 412.60 562.72 412.23 560.70 C 410.39 560.19 410.71 558.12 410.19 556.68 C 407.79 556.06 408.01 552.92 405.89 551.99 C 406.13 550.10 404.23 550.18 404.61 548.25 L 403.83 548.08 C 403.77 547.62 403.66 546.72 403.61 546.26 L 402.79 546.12 C 402.75 545.65 402.66 544.71 402.61 544.24 L 401.80 544.10 C 401.75 543.64 401.66 542.71 401.61 542.25 L 400.75 542.13 C 400.72 541.66 400.65 540.72 400.62 540.25 L 399.76 540.13 C 399.73 539.66 399.65 538.72 399.62 538.25 L 398.70 538.15 C 398.68 537.67 398.64 536.72 398.61 536.25 L 397.73 536.17 C 397.70 535.69 397.63 534.73 397.60 534.25 L 396.69 534.19 C 396.67 533.71 396.62 532.74 396.60 532.26 L 395.73 532.12 C 395.70 529.30 392.14 528.00 392.61 525.26 L 391.69 525.21 C 392.09 523.30 390.59 522.73 390.26 520.90 C 388.90 517.13 386.97 513.61 384.76 510.28 C 380.45 503.72 377.03 496.64 373.02 489.91 C 368.49 482.38 364.65 474.46 360.03 466.99 C 356.32 460.41 352.85 453.64 347.79 447.96 C 347.62 441.64 347.69 435.32 347.69 429.00 C 347.68 370.67 347.69 312.33 347.68 254.00 C 347.66 248.26 347.65 242.51 347.81 236.78 Z" />
</g>
</svg>
