<?xml version="1.0" standalone="no"?>
<!DOCTYPE svg PUBLIC "-//W3C//DTD SVG 20010904//EN"
 "http://www.w3.org/TR/2001/REC-SVG-20010904/DTD/svg10.dtd">
<svg version="1.0" xmlns="http://www.w3.org/2000/svg"
 width="840.000000pt" height="840.000000pt" viewBox="0 0 840.000000 840.000000"
 preserveAspectRatio="xMidYMid meet">
<metadata>
Created by potrace 1.11, written by Peter Selinger 2001-2013
</metadata>
<g transform="translate(0.000000,840.000000) scale(0.100000,-0.100000)"
fill="#000000" stroke="none">
<path d="M2067 6803 c-3 -3 -41 -7 -84 -9 -73 -3 -166 -11 -223 -19 -152 -20
-150 -20 -285 -50 -94 -20 -272 -84 -383 -135 -92 -44 -219 -115 -232 -130 -3
-3 -18 -14 -33 -23 -82 -53 -230 -199 -315 -312 -32 -42 -72 -105 -72 -113 0
-6 -4 -12 -8 -14 -11 -5 -102 -196 -104 -218 0 -3 -4 -13 -9 -22 -13 -25 -63
-208 -74 -273 -3 -16 -10 -55 -15 -85 -16 -84 -24 -204 -25 -327 0 -62 -4
-113 -9 -113 -5 0 -3 -6 3 -14 7 -9 8 -17 3 -20 -6 -3 -7 -20 -3 -39 5 -18 5
-41 1 -51 -3 -10 -3 -40 0 -67 4 -27 3 -49 -1 -49 -4 0 -4 -13 1 -29 4 -15 5
-34 1 -40 -4 -7 -5 -31 -1 -54 3 -23 3 -56 0 -73 -4 -16 -4 -39 0 -50 4 -10 4
-29 -1 -41 -5 -12 -4 -25 0 -28 5 -3 6 -20 2 -38 -5 -18 -5 -41 -1 -52 4 -11
4 -29 0 -40 -4 -11 -6 -29 -4 -40 4 -22 4 -26 5 -139 0 -44 2 -83 5 -88 3 -4
0 -8 -7 -8 -9 0 -9 -3 0 -14 7 -9 8 -17 3 -20 -6 -3 -7 -20 -3 -39 5 -18 5
-41 1 -51 -3 -10 -3 -40 0 -67 4 -27 3 -49 -1 -49 -4 0 -4 -13 1 -29 4 -15 5
-34 1 -40 -4 -7 -5 -31 -1 -54 3 -23 3 -56 0 -73 -4 -16 -4 -39 0 -50 4 -10 4
-29 -1 -41 -5 -12 -4 -25 0 -28 5 -3 6 -20 2 -38 -5 -18 -5 -41 -1 -52 4 -11
4 -29 0 -40 -4 -11 -6 -29 -4 -40 4 -22 4 -26 5 -139 0 -44 2 -83 5 -88 3 -4
0 -8 -7 -8 -9 0 -9 -3 0 -14 7 -9 8 -17 3 -20 -6 -3 -7 -20 -3 -39 5 -18 5
-41 1 -51 -3 -10 -3 -40 0 -67 4 -27 3 -49 -1 -49 -4 0 -4 -13 1 -29 4 -15 5
-34 1 -40 -4 -7 -5 -31 -1 -54 3 -23 3 -56 0 -73 -4 -16 -4 -39 0 -50 4 -10 4
-29 -1 -41 -5 -12 -4 -25 0 -28 5 -3 6 -20 2 -38 -5 -18 -5 -41 -1 -52 4 -11
4 -29 0 -40 -4 -11 -6 -29 -4 -40 4 -22 4 -26 5 -139 0 -44 2 -83 5 -88 3 -4
0 -8 -7 -8 -9 0 -9 -3 0 -14 7 -9 8 -17 3 -20 -6 -3 -7 -20 -3 -39 5 -18 5
-41 1 -51 -3 -10 -3 -40 0 -67 4 -27 3 -49 -1 -49 -4 0 -4 -13 1 -29 4 -16 6
-32 3 -34 -2 -3 -5 -43 -5 -89 0 -70 3 -83 16 -82 9 1 16 -2 16 -8 0 -5 5 -6
11 -3 5 4 36 6 67 6 59 -1 82 -2 177 -1 30 0 62 0 70 0 8 0 26 0 40 0 32 0 52
0 68 1 6 0 26 0 42 0 17 -1 39 -1 50 -1 11 0 34 0 50 1 17 0 36 0 43 0 14 -1
25 -1 107 -2 102 0 109 0 148 3 l38 3 1 1026 0 1026 1624 -1 1624 -1 0 431 0
432 -30 4 c-16 2 -31 1 -32 -3 -2 -4 -23 -4 -48 0 -25 4 -58 4 -75 1 -16 -3
-49 -3 -72 1 -24 3 -43 2 -43 -3 0 -5 -9 -7 -20 -3 -10 3 -43 6 -72 5 -29 0
-62 0 -73 0 -11 1 -27 1 -35 1 -23 -1 -174 0 -185 0 -5 1 -39 1 -75 0 -36 0
-72 0 -80 0 -8 1 -44 1 -80 0 -36 0 -72 0 -80 0 -8 1 -44 1 -80 0 -36 0 -72 0
-80 0 -8 1 -44 1 -80 0 -36 0 -72 0 -80 0 -8 1 -44 1 -80 0 -36 0 -72 0 -80 0
-8 1 -44 1 -80 0 -36 0 -72 0 -80 0 -8 1 -44 1 -80 0 -36 0 -81 0 -100 0 -19
0 -59 -1 -88 -1 -29 0 -57 2 -61 5 -5 3 -11 1 -13 -4 -1 -5 -23 -6 -48 -2 -25
4 -58 4 -75 1 -16 -3 -49 -3 -72 1 -23 3 -44 2 -45 -2 -2 -4 -23 -4 -48 0 -25
4 -58 4 -75 1 -16 -3 -49 -3 -72 1 -23 3 -44 2 -45 -2 -2 -4 -23 -4 -48 0 -25
4 -58 4 -75 1 -16 -3 -49 -3 -72 1 -23 3 -44 2 -45 -2 -2 -4 -23 -4 -48 0 -25
4 -58 4 -75 1 -16 -3 -49 -3 -72 1 -23 3 -44 2 -45 -2 -2 -4 -23 -4 -48 0 -25
4 -58 4 -75 1 -16 -3 -47 -3 -67 1 -21 3 -38 3 -38 -1 0 -8 -56 -4 -71 6 -10
6 -6 602 5 669 21 130 76 269 139 350 46 59 130 136 182 168 95 57 272 126
365 141 19 3 46 8 60 11 26 6 97 13 190 20 76 6 3802 6 3870 0 105 -9 270 -31
302 -41 9 -3 26 -7 39 -9 89 -17 282 -91 334 -128 16 -12 31 -21 33 -19 8 8
126 -83 192 -148 117 -116 204 -259 270 -445 17 -49 34 -99 36 -110 8 -39 13
-60 23 -93 5 -18 10 -35 10 -37 -1 -3 3 -24 7 -48 4 -23 8 -46 9 -52 0 -5 4
-35 9 -65 21 -158 29 -287 28 -505 0 -170 -5 -279 -17 -370 -18 -150 -22 -170
-41 -270 -29 -145 -98 -336 -164 -454 -38 -66 -41 -72 -91 -136 -102 -131
-254 -247 -409 -309 -36 -15 -72 -30 -81 -35 -9 -5 -63 -21 -120 -35 -119 -29
-152 -36 -269 -52 -25 -4 -405 -9 -846 -11 -760 -4 -802 -3 -823 14 -12 10
-25 34 -29 53 -4 19 -7 226 -7 460 l1 425 -246 5 c-135 3 -347 4 -472 2 l-226
-3 2 -772 c2 -425 6 -788 10 -807 20 -92 120 -230 168 -230 10 0 18 -4 18 -8
0 -23 167 -52 300 -52 14 0 34 0 45 0 11 0 34 0 50 1 17 0 36 0 43 0 6 -1 20
-1 30 -1 43 -1 140 -1 165 -1 24 0 109 1 152 1 8 0 26 0 40 0 32 0 52 0 68 1
6 0 26 0 42 0 38 -1 62 -1 100 0 17 0 36 0 43 0 6 -1 20 -1 30 -1 43 -1 140
-1 165 -1 24 0 109 1 152 1 8 0 26 0 40 0 32 0 52 0 68 1 6 0 26 0 42 0 38 -1
62 -1 100 0 17 0 36 0 43 0 6 -1 20 -1 30 -1 43 -1 140 -1 165 -1 24 0 109 1
152 1 8 0 26 0 40 0 14 0 33 0 43 0 9 0 33 0 52 -1 43 -1 34 -1 150 5 147 8
278 21 335 32 11 3 40 7 65 10 25 3 61 9 80 14 19 5 52 11 74 14 21 4 41 8 45
11 4 2 18 6 32 9 48 10 165 44 209 61 25 9 50 18 55 19 6 1 27 10 49 19 21 9
40 17 43 17 22 0 343 177 363 200 3 3 21 17 40 30 19 14 46 34 60 46 142 122
206 187 278 279 25 33 49 62 52 65 18 14 143 228 182 310 77 161 172 445 193
575 3 17 8 41 10 55 3 14 7 36 10 50 3 14 7 36 10 50 2 14 7 45 10 70 3 25 8
56 10 70 15 86 23 198 30 404 2 82 6 151 9 153 2 3 0 18 -4 34 -5 17 -5 31 1
35 5 3 7 9 4 14 -3 5 -8 77 -10 162 -3 84 -7 169 -10 188 -2 19 -7 67 -10 105
-4 39 -9 81 -11 95 -7 46 -15 95 -25 150 -6 30 -12 64 -14 75 -2 18 -5 34 -19
102 -11 55 -61 224 -92 313 -1 3 -5 15 -9 27 -24 74 -114 261 -171 356 -182
304 -426 533 -744 699 -139 72 -302 134 -475 179 -22 6 -53 14 -70 19 -26 7
-87 18 -185 34 -14 3 -25 5 -25 6 0 2 -23 4 -121 14 -39 4 -82 9 -95 11 -23 5
-248 15 -416 18 -46 1 -83 -1 -83 -4 0 -4 -16 -3 -35 1 -19 4 -37 4 -40 -1 -3
-4 -16 -5 -28 0 -12 5 -31 5 -42 1 -11 -4 -33 -5 -50 -3 -16 3 -37 4 -45 4 -8
-1 -26 -1 -40 0 -14 0 -31 0 -37 0 -20 -1 -37 -1 -117 0 -40 1 -78 -1 -83 -4
-5 -3 -15 -2 -22 3 -8 4 -27 4 -42 0 -16 -5 -29 -6 -29 -2 0 4 -16 7 -35 7
-19 0 -35 -3 -35 -7 0 -4 -7 -5 -15 -1 -22 8 -265 10 -265 2 0 -4 -16 -3 -35
1 -19 4 -37 4 -40 -1 -3 -4 -16 -4 -29 1 -13 5 -26 6 -29 4 -5 -5 -80 -8 -102
-4 -5 1 -62 1 -125 1 -155 -1 -146 -1 -225 2 -38 1 -78 -1 -87 -6 -10 -4 -18
-4 -18 0 0 7 -264 9 -280 3 -3 -1 -9 -1 -15 0 -27 6 -238 4 -242 -3 -2 -4 -12
-3 -22 3 -10 5 -20 7 -23 5 -4 -5 -26 -5 -127 -5 -35 1 -66 -1 -68 -4 -3 -3
-15 -1 -27 4 -13 4 -29 5 -36 0 -7 -5 -23 -5 -34 0 -12 4 -30 4 -41 0 -11 -4
-31 -4 -45 0 -14 4 -34 4 -45 0 -11 -4 -24 -5 -29 -2 -13 7 -76 8 -76 1 0 -4
-16 -3 -35 1 -19 4 -37 4 -40 -1 -3 -4 -16 -5 -28 0 -12 5 -31 5 -42 1 -11 -4
-26 -5 -33 -2 -20 7 -262 8 -262 1 0 -4 -16 -3 -35 1 -19 4 -37 4 -40 -1 -3
-4 -16 -5 -28 0 -12 5 -30 5 -41 2 -10 -4 -32 -6 -50 -4 -50 5 -108 5 -113 -1
-3 -3 -13 -1 -23 4 -10 5 -20 7 -23 3z"/>
</g>
</svg>
